# xmcd CD database file
#
# Track frame offsets:
#	150
#	14624
#	30669
#	50339
#	69632
#	84370
#	95956
#	131188
#	140692
#
# Disc length: 2274 seconds
#
# Revision: 0
# Processed by: cddbd v1.5.2PL0 Copyright (c) Steve Scherf et al.
# Submitted via: CDex 1.70beta2
#
DISCID=8208e009
DTITLE=Dragon or Emperor - Dragon or Emperor
DYEAR=2005
DGENRE=Jazz
TTITLE0=Part of me says
TTITLE1=The People
TTITLE2=Fast Apache
TTITLE3=Bossa
TTITLE4=Piano
TTITLE5=Your success
TTITLE6=Slow toms
TTITLE7=No pay
TTITLE8=Never know what to say
EXTD=YEAR: 2005
EXTT0=
EXTT1=
EXTT2=
EXTT3=
EXTT4=
EXTT5=
EXTT6=
EXTT7=
EXTT8=
PLAYORDER=
